<?xml version="1.0" encoding="UTF-8" standalone="no"?><!DOCTYPE svg PUBLIC "-//W3C//DTD SVG 1.1//EN" "http://www.w3.org/Graphics/SVG/1.1/DTD/svg11.dtd"><svg width="100%" height="100%" viewBox="0 0 544 532" version="1.1" xmlns="http://www.w3.org/2000/svg" xmlns:xlink="http://www.w3.org/1999/xlink" xml:space="preserve" xmlns:serif="http://www.serif.com/" style="fill-rule:evenodd;clip-rule:evenodd;stroke-linejoin:round;stroke-miterlimit:2;"><g><path d="M432.053,253.472c0,-1.522 -0.928,-2.934 -2.45,-2.934c-1.525,-0 -2.897,1.412 -2.897,2.934c0,1.522 1.372,2.562 2.897,2.562c1.522,0 2.45,-1.04 2.45,-2.562Z" style="fill:#fff;fill-rule:nonzero;"/><path d="M399.191,402.734c-0,1.522 1.303,2.475 2.825,2.475c1.525,0 2.981,-0.953 2.981,-2.475c-0,-1.525 -1.456,-2.8 -2.981,-2.8c-1.522,0 -2.825,1.275 -2.825,2.8Z" style="fill:#fff;fill-rule:nonzero;"/><path d="M373.106,432.222c-1.525,-0 -2.444,0.759 -2.444,2.284c0,1.522 0.919,3.291 2.444,3.291c1.522,-0 2.244,-1.769 2.244,-3.291c-0,-1.525 -0.722,-2.284 -2.244,-2.284Z" style="fill:#fff;fill-rule:nonzero;"/><path d="M398.328,482.897c-1.522,-0 -3.169,1.316 -3.169,2.837c0,1.522 1.647,2.347 3.169,2.347c1.522,0 2.478,-0.825 2.478,-2.347c0,-1.521 -0.956,-2.837 -2.478,-2.837Z" style="fill:#fff;fill-rule:nonzero;"/><path d="M410.494,365.778c1.525,0 2.865,-1.684 2.865,-3.206c0,-1.522 -1.34,-2.388 -2.865,-2.388c-1.522,0 -3.213,0.866 -3.213,2.388c0,1.522 1.691,3.206 3.213,3.206Z" style="fill:#fff;fill-rule:nonzero;"/><path d="M340.95,447.75c-1.522,0 -2.762,1.684 -2.762,3.206c-0,1.525 1.24,2.96 2.762,2.96c1.525,-0 2.422,-1.435 2.422,-2.96c-0,-1.522 -0.897,-3.206 -2.422,-3.206Z" style="fill:#fff;fill-rule:nonzero;"/><path d="M302.388,358.713c1.521,-0 2.884,-1.057 2.884,-2.582c-0,-1.522 -1.363,-2.915 -2.884,-2.915c-1.525,-0 -2.3,1.393 -2.3,2.915c-0,1.525 0.775,2.582 2.3,2.582Z" style="fill:#fff;fill-rule:nonzero;"/><path d="M168.262,336.988c0,-1.525 -1.359,-3.116 -2.881,-3.116c-1.522,-0 -2.515,1.591 -2.515,3.116c-0,1.521 0.993,2.603 2.515,2.603c1.522,-0 2.881,-1.082 2.881,-2.603Z" style="fill:#fff;fill-rule:nonzero;"/><path d="M256.975,293.497c-0,-1.525 -0.997,-2.413 -2.519,-2.413c-1.525,0 -2.869,0.888 -2.869,2.413c0,1.522 1.344,2.884 2.869,2.884c1.522,0 2.519,-1.362 2.519,-2.884Z" style="fill:#fff;fill-rule:nonzero;"/><path d="M239.441,180.184c1.522,0 3.034,-1.156 3.034,-2.681c-0,-1.522 -1.512,-2.934 -3.034,-2.934c-1.522,-0 -2.747,1.412 -2.747,2.934c-0,1.525 1.225,2.681 2.747,2.681Z" style="fill:#fff;fill-rule:nonzero;"/><path d="M155.288,378.319c-0,1.522 0.765,2.259 2.29,2.259c1.522,0 2.994,-0.737 2.994,-2.259c-0,-1.522 -1.472,-2.516 -2.994,-2.516c-1.525,0 -2.29,0.994 -2.29,2.516Z" style="fill:#fff;fill-rule:nonzero;"/><path d="M22.363,477.091c-1.522,-0 -2.463,1.218 -2.463,2.74c-0,1.525 0.941,2.366 2.463,2.366c1.524,-0 3.309,-0.841 3.309,-2.366c-0,-1.522 -1.785,-2.74 -3.309,-2.74Z" style="fill:#fff;fill-rule:nonzero;"/><path d="M37.213,517.784c1.521,0 2.659,-1.084 2.659,-2.606c-0,-1.522 -1.138,-2.944 -2.659,-2.944c-1.522,0 -2.494,1.422 -2.494,2.944c-0,1.522 0.972,2.606 2.494,2.606Z" style="fill:#fff;fill-rule:nonzero;"/><path d="M110.1,468.506c-0,1.525 1.606,2.828 3.128,2.828c1.525,0 3.284,-1.303 3.284,-2.828c0,-1.522 -1.759,-2.537 -3.284,-2.537c-1.522,-0 -3.128,1.015 -3.128,2.537Z" style="fill:#fff;fill-rule:nonzero;"/><path d="M229.069,73.647c1.522,-0 3.281,-1.613 3.281,-3.134c-0,-1.522 -1.759,-2.679 -3.281,-2.679c-1.525,0 -2.766,1.157 -2.766,2.679c0,1.521 1.241,3.134 2.766,3.134Z" style="fill:#fff;fill-rule:nonzero;"/><path d="M57.331,467.797c-1.525,-0 -2.653,1.766 -2.653,3.291c0,1.521 1.128,3.228 2.653,3.228c1.522,-0 3.044,-1.707 3.044,-3.228c0,-1.525 -1.522,-3.291 -3.044,-3.291Z" style="fill:#fff;fill-rule:nonzero;"/><path d="M272.65,325.772c1.522,-0 3.141,-0.713 3.141,-2.234c-0,-1.525 -1.619,-2.938 -3.141,-2.938c-1.522,0 -2.666,1.413 -2.666,2.938c0,1.521 1.144,2.234 2.666,2.234Z" style="fill:#fff;fill-rule:nonzero;"/><path d="M239.003,468.188c-1.522,-0 -2.787,1.525 -2.787,3.046c-0,1.525 1.265,3.016 2.787,3.016c1.525,0 2.431,-1.491 2.431,-3.016c0,-1.521 -0.906,-3.046 -2.431,-3.046Z" style="fill:#fff;fill-rule:nonzero;"/><path d="M172.669,420.428c1.522,0 2.456,-0.784 2.456,-2.309c-0,-1.522 -0.934,-3.119 -2.456,-3.119c-1.522,0 -2.844,1.597 -2.844,3.119c-0,1.525 1.322,2.309 2.844,2.309Z" style="fill:#fff;fill-rule:nonzero;"/><path d="M210.631,457.872c-1.522,-0 -2.29,1.103 -2.29,2.625c-0,1.522 0.768,2.641 2.29,2.641c1.525,-0 2.663,-1.119 2.663,-2.641c-0,-1.522 -1.138,-2.625 -2.663,-2.625Z" style="fill:#fff;fill-rule:nonzero;"/><path d="M295.475,438.631c0,1.525 1.153,3.113 2.675,3.113c1.522,-0 2.316,-1.588 2.316,-3.113c-0,-1.518 -0.794,-2.962 -2.316,-2.962c-1.522,-0 -2.675,1.444 -2.675,2.962Z" style="fill:#fff;fill-rule:nonzero;"/><path d="M147.619,444.075c-0,1.522 0.822,2.778 2.344,2.778c1.525,0 2.587,-1.256 2.587,-2.778c-0,-1.522 -1.062,-3.116 -2.587,-3.116c-1.522,0 -2.344,1.594 -2.344,3.116Z" style="fill:#fff;fill-rule:nonzero;"/><path d="M307.887,401.994c0,-1.522 -1.093,-3.181 -2.615,-3.181c-1.525,-0 -2.494,1.659 -2.494,3.181c0,1.525 0.969,2.428 2.494,2.428c1.522,-0 2.615,-0.903 2.615,-2.428Z" style="fill:#fff;fill-rule:nonzero;"/><path d="M233.731,426.091c0,1.522 0.707,3.143 2.228,3.143c1.522,0 2.766,-1.621 2.766,-3.143c0,-1.525 -1.244,-3.028 -2.766,-3.028c-1.521,-0 -2.228,1.503 -2.228,3.028Z" style="fill:#fff;fill-rule:nonzero;"/><path d="M200.287,503.175c-1.524,0 -2.587,0.831 -2.587,2.353c0,1.522 1.063,2.944 2.587,2.944c1.522,-0 2.397,-1.422 2.397,-2.944c0,-1.522 -0.875,-2.353 -2.397,-2.353Z" style="fill:#fff;fill-rule:nonzero;"/><path d="M267.616,423.434c-0,-1.525 -1.569,-2.696 -3.094,-2.696c-1.522,-0 -2.841,1.171 -2.841,2.696c0,1.522 1.319,3.088 2.841,3.088c1.525,-0 3.094,-1.566 3.094,-3.088Z" style="fill:#fff;fill-rule:nonzero;"/><path d="M173.734,459.241c-1.525,-0 -2.4,0.737 -2.4,2.259c0,1.525 0.875,3.269 2.4,3.269c1.522,-0 2.469,-1.744 2.469,-3.269c0,-1.522 -0.947,-2.259 -2.469,-2.259Z" style="fill:#fff;fill-rule:nonzero;"/><path d="M202.419,390.503c-0,1.522 1.087,2.872 2.609,2.872c1.525,0 2.756,-1.35 2.756,-2.872c0,-1.525 -1.231,-2.79 -2.756,-2.79c-1.522,-0 -2.609,1.265 -2.609,2.79Z" style="fill:#fff;fill-rule:nonzero;"/><path d="M393.063,319.831c-0,-1.522 -1.185,-2.872 -2.707,-2.872c-1.522,0 -3.109,1.35 -3.109,2.872c-0,1.525 1.587,2.863 3.109,2.863c1.522,-0 2.707,-1.338 2.707,-2.863Z" style="fill:#fff;fill-rule:nonzero;"/><path d="M339.384,296.953c1.522,0 2.553,-0.84 2.553,-2.362c0,-1.522 -1.031,-2.385 -2.553,-2.385c-1.525,0 -2.378,0.863 -2.378,2.385c0,1.522 0.853,2.362 2.378,2.362Z" style="fill:#fff;fill-rule:nonzero;"/><path d="M265.759,258.722c-1.521,-0 -2.7,0.887 -2.7,2.409c0,1.522 1.179,3.266 2.7,3.266c1.522,-0 2.738,-1.744 2.738,-3.266c-0,-1.522 -1.216,-2.409 -2.738,-2.409Z" style="fill:#fff;fill-rule:nonzero;"/><path d="M196.006,252.831c1.522,0 2.9,-1.043 2.9,-2.565c0,-1.525 -1.378,-3.253 -2.9,-3.253c-1.525,-0 -2.734,1.728 -2.734,3.253c-0,1.522 1.209,2.565 2.734,2.565Z" style="fill:#fff;fill-rule:nonzero;"/><path d="M223.403,111.497c1.525,-0 2.834,-0.763 2.834,-2.284c0,-1.522 -1.309,-2.55 -2.834,-2.55c-1.522,-0 -3.24,1.028 -3.24,2.55c-0,1.521 1.718,2.284 3.24,2.284Z" style="fill:#fff;fill-rule:nonzero;"/><path d="M209.975,204.088c0,1.521 1.019,2.39 2.541,2.39c1.522,0 3.128,-0.869 3.128,-2.39c-0,-1.522 -1.606,-2.713 -3.128,-2.713c-1.522,0 -2.541,1.191 -2.541,2.713Z" style="fill:#fff;fill-rule:nonzero;"/><path d="M39.881,98.044c1.522,-0 2.685,-1.691 2.685,-3.216c-0,-1.522 -1.163,-3.25 -2.685,-3.25c-1.525,0 -2.881,1.728 -2.881,3.25c0,1.525 1.356,3.216 2.881,3.216Z" style="fill:#fff;fill-rule:nonzero;"/><path d="M175.369,10.672c1.522,-0 3.081,-1.156 3.081,-2.678c0,-1.522 -1.559,-2.597 -3.081,-2.597c-1.522,-0 -3.135,1.075 -3.135,2.597c0,1.522 1.613,2.678 3.135,2.678Z" style="fill:#fff;fill-rule:nonzero;"/><path d="M15.803,130.666c1.522,-0 2.528,-1.144 2.528,-2.666c0,-1.525 -1.006,-2.703 -2.528,-2.703c-1.525,-0 -2.344,1.178 -2.344,2.703c0,1.522 0.819,2.666 2.344,2.666Z" style="fill:#fff;fill-rule:nonzero;"/><path d="M308.072,254.031c1.522,0 2.675,-1.703 2.675,-3.228c-0,-1.522 -1.153,-2.365 -2.675,-2.365c-1.522,-0 -2.759,0.843 -2.759,2.365c-0,1.525 1.237,3.228 2.759,3.228Z" style="fill:#fff;fill-rule:nonzero;"/><path d="M265.681,459.069c-1.525,-0 -2.709,0.847 -2.709,2.372c-0,1.522 1.184,2.287 2.709,2.287c1.522,0 2.216,-0.765 2.216,-2.287c-0,-1.525 -0.694,-2.372 -2.216,-2.372Z" style="fill:#fff;fill-rule:nonzero;"/><path d="M389.512,455.084c0,1.522 1.697,2.697 3.219,2.697c1.525,0 2.678,-1.175 2.678,-2.697c0,-1.525 -1.153,-2.865 -2.678,-2.865c-1.522,-0 -3.219,1.34 -3.219,2.865Z" style="fill:#fff;fill-rule:nonzero;"/><path d="M370.209,296.288c1.522,-0 2.625,-0.86 2.625,-2.385c0,-1.522 -1.103,-2.822 -2.625,-2.822c-1.525,0 -2.222,1.3 -2.222,2.822c0,1.525 0.697,2.385 2.222,2.385Z" style="fill:#fff;fill-rule:nonzero;"/><path d="M304.881,163.55c-1.522,0 -2.384,1.484 -2.384,3.006c-0,1.525 0.862,2.516 2.384,2.516c1.525,-0 2.328,-0.991 2.328,-2.516c0,-1.522 -0.803,-3.006 -2.328,-3.006Z" style="fill:#fff;fill-rule:nonzero;"/><path d="M201.653,80.059c1.525,0 2.731,-1.143 2.731,-2.668c0,-1.522 -1.206,-3.213 -2.731,-3.213c-1.522,0 -2.547,1.691 -2.547,3.213c0,1.525 1.025,2.668 2.547,2.668Z" style="fill:#fff;fill-rule:nonzero;"/><path d="M137.244,203.866c-1.522,-0 -2.763,1.537 -2.763,3.059c0,1.525 1.241,2.506 2.763,2.506c1.522,0 3.044,-0.981 3.044,-2.506c-0,-1.522 -1.522,-3.059 -3.044,-3.059Z" style="fill:#fff;fill-rule:nonzero;"/><path d="M120.269,369.559c-1.522,0 -3.238,0.979 -3.238,2.497c0,1.525 1.716,3.2 3.238,3.2c1.525,0 2.969,-1.675 2.969,-3.2c-0,-1.518 -1.444,-2.497 -2.969,-2.497Z" style="fill:#fff;fill-rule:nonzero;"/><path d="M283.684,372.034c-1.522,0 -2.959,1.672 -2.959,3.194c0,1.522 1.437,2.503 2.959,2.503c1.525,0 3.279,-0.981 3.279,-2.503c-0,-1.522 -1.754,-3.194 -3.279,-3.194Z" style="fill:#fff;fill-rule:nonzero;"/><path d="M163.159,307.159c0,1.522 1.125,2.754 2.65,2.754c1.522,-0 3.266,-1.232 3.266,-2.754c0,-1.525 -1.744,-2.556 -3.266,-2.556c-1.525,0 -2.65,1.031 -2.65,2.556Z" style="fill:#fff;fill-rule:nonzero;"/><path d="M199.653,142.175c0,1.522 1.006,2.744 2.528,2.744c1.525,-0 3.216,-1.222 3.216,-2.744c-0,-1.525 -1.691,-2.419 -3.216,-2.419c-1.522,0 -2.528,0.894 -2.528,2.419Z" style="fill:#fff;fill-rule:nonzero;"/><path d="M265.738,169.422c1.521,-0 2.524,-0.903 2.524,-2.425c0,-1.522 -1.003,-2.938 -2.524,-2.938c-1.522,0 -3.138,1.416 -3.138,2.938c-0,1.522 1.616,2.425 3.138,2.425Z" style="fill:#fff;fill-rule:nonzero;"/><path d="M121.303,301.663c-1.522,-0 -2.422,0.703 -2.422,2.228c0,1.522 0.9,2.793 2.422,2.793c1.525,0 3.213,-1.271 3.213,-2.793c-0,-1.525 -1.688,-2.228 -3.213,-2.228Z" style="fill:#fff;fill-rule:nonzero;"/><path d="M45.694,381.619c-1.522,-0 -2.581,1.781 -2.581,3.303c-0,1.525 1.059,2.359 2.581,2.359c1.522,0 3.022,-0.834 3.022,-2.359c-0,-1.522 -1.5,-3.303 -3.022,-3.303Z" style="fill:#fff;fill-rule:nonzero;"/><path d="M424.694,334.384c-1.522,0 -2.244,1.182 -2.244,2.707c0,1.522 0.722,2.29 2.244,2.29c1.525,0 2.506,-0.768 2.506,-2.29c-0,-1.525 -0.981,-2.707 -2.506,-2.707Z" style="fill:#fff;fill-rule:nonzero;"/><path d="M323.834,501.819c1.522,-0 2.763,-1.566 2.763,-3.091c-0,-1.522 -1.241,-2.731 -2.763,-2.731c-1.521,-0 -2.862,1.209 -2.862,2.731c-0,1.525 1.341,3.091 2.862,3.091Z" style="fill:#fff;fill-rule:nonzero;"/><path d="M58.413,274.744c1.524,-0 2.493,-1.313 2.493,-2.838c0,-1.522 -0.969,-2.7 -2.493,-2.7c-1.522,0 -2.863,1.178 -2.863,2.7c0,1.525 1.341,2.838 2.863,2.838Z" style="fill:#fff;fill-rule:nonzero;"/><path d="M112.313,439.947c1.524,-0 2.25,-1.55 2.25,-3.075c-0,-1.522 -0.726,-2.988 -2.25,-2.988c-1.522,0 -3.066,1.466 -3.066,2.988c-0,1.525 1.544,3.075 3.066,3.075Z" style="fill:#fff;fill-rule:nonzero;"/><path d="M137.122,492.503c-1.522,0 -2.653,0.847 -2.653,2.369c-0,1.522 1.131,2.366 2.653,2.366c1.522,-0 2.878,-0.844 2.878,-2.366c-0,-1.522 -1.356,-2.369 -2.878,-2.369Z" style="fill:#fff;fill-rule:nonzero;"/><path d="M68.163,493.391c-1.525,-0 -2.441,1.312 -2.441,2.837c-0,1.522 0.916,2.463 2.441,2.463c1.521,-0 3.156,-0.941 3.156,-2.463c-0,-1.525 -1.635,-2.837 -3.156,-2.837Z" style="fill:#fff;fill-rule:nonzero;"/><path d="M20.966,328.841c-0,-1.522 -0.813,-2.425 -2.335,-2.425c-1.522,-0 -2.934,0.903 -2.934,2.425c-0,1.522 1.412,3.215 2.934,3.215c1.522,0 2.335,-1.693 2.335,-3.215Z" style="fill:#fff;fill-rule:nonzero;"/><path d="M55.897,142.45c-0,1.522 1.634,2.413 3.156,2.413c1.525,-0 2.691,-0.891 2.691,-2.413c-0,-1.525 -1.166,-2.781 -2.691,-2.781c-1.522,-0 -3.156,1.256 -3.156,2.781Z" style="fill:#fff;fill-rule:nonzero;"/><path d="M112.397,273.619c1.522,-0 3.266,-1.419 3.266,-2.941c-0,-1.525 -1.744,-2.378 -3.266,-2.378c-1.525,0 -2.688,0.853 -2.688,2.378c0,1.522 1.163,2.941 2.688,2.941Z" style="fill:#fff;fill-rule:nonzero;"/><path d="M438.841,492.7c-1.525,0 -3.219,1.038 -3.219,2.559c-0,1.525 1.694,2.635 3.219,2.635c1.522,-0 2.625,-1.11 2.625,-2.635c-0,-1.521 -1.103,-2.559 -2.625,-2.559Z" style="fill:#fff;fill-rule:nonzero;"/><path d="M22.569,416.884c-0,-1.521 -0.763,-3.106 -2.288,-3.106c-1.522,0 -2.268,1.585 -2.268,3.106c-0,1.522 0.746,3.188 2.268,3.188c1.525,-0 2.288,-1.666 2.288,-3.188Z" style="fill:#fff;fill-rule:nonzero;"/><path d="M2.4,260.822c0,-1.291 -1.128,-2.591 -2.4,-2.956l0,5.409c1.272,-0.247 2.4,-1.159 2.4,-2.453Z" style="fill:#fff;fill-rule:nonzero;"/><path d="M230.925,503.722c-1.522,-0 -2.341,0.853 -2.341,2.378c0,1.522 0.819,2.553 2.341,2.553c1.525,0 2.731,-1.031 2.731,-2.553c0,-1.525 -1.206,-2.378 -2.731,-2.378Z" style="fill:#fff;fill-rule:nonzero;"/><path d="M432.919,383.325c-1.522,0 -2.828,0.831 -2.828,2.356c-0,1.522 1.306,2.225 2.828,2.225c1.522,0 2.215,-0.703 2.215,-2.225c0,-1.525 -0.693,-2.356 -2.215,-2.356Z" style="fill:#fff;fill-rule:nonzero;"/><path d="M31.75,444.419c-1.522,-0 -2.85,1.225 -2.85,2.747c-0,1.525 1.328,2.381 2.85,2.381c1.522,-0 2.834,-0.856 2.834,-2.381c0,-1.522 -1.312,-2.747 -2.834,-2.747Z" style="fill:#fff;fill-rule:nonzero;"/><path d="M292.391,289.506c-0,1.522 0.731,3.253 2.253,3.253c1.522,0 2.778,-1.731 2.778,-3.253c-0,-1.522 -1.256,-2.575 -2.778,-2.575c-1.522,0 -2.253,1.053 -2.253,2.575Z" style="fill:#fff;fill-rule:nonzero;"/><path d="M99.994,496.453c-1.522,0 -3.172,1.05 -3.172,2.572c-0,1.522 1.65,2.891 3.172,2.891c1.522,-0 2.603,-1.369 2.603,-2.891c-0,-1.522 -1.081,-2.572 -2.603,-2.572Z" style="fill:#fff;fill-rule:nonzero;"/><path d="M153.9,282.231c1.522,0 3.066,-0.725 3.066,-2.25c-0,-1.522 -1.544,-3.112 -3.066,-3.112c-1.522,-0 -2.294,1.59 -2.294,3.112c0,1.525 0.772,2.25 2.294,2.25Z" style="fill:#fff;fill-rule:nonzero;"/><path d="M160.962,178.334c1.522,0 2.638,-0.706 2.638,-2.228c-0,-1.522 -1.116,-2.24 -2.638,-2.24c-1.524,-0 -2.643,0.718 -2.643,2.24c-0,1.522 1.119,2.228 2.643,2.228Z" style="fill:#fff;fill-rule:nonzero;"/><path d="M186.803,48.069c1.525,-0 3.041,-1.444 3.041,-2.972c-0,-1.519 -1.516,-3.084 -3.041,-3.084c-1.522,-0 -3.072,1.565 -3.072,3.084c0,1.528 1.55,2.972 3.072,2.972Z" style="fill:#fff;fill-rule:nonzero;"/><path d="M148.05,37.244c1.522,-0 2.553,-1.272 2.553,-2.794c0,-1.522 -1.031,-2.747 -2.553,-2.747c-1.522,0 -2.541,1.225 -2.541,2.747c0,1.522 1.019,2.794 2.541,2.794Z" style="fill:#fff;fill-rule:nonzero;"/><path d="M138.075,2.222c1.225,-0 2.316,-1.031 2.703,-2.222l-5.172,0c0.319,1.191 1.244,2.222 2.469,2.222Z" style="fill:#fff;fill-rule:nonzero;"/><path d="M456.531,276.441c1.522,-0 2.894,-0.9 2.894,-2.425c-0,-1.522 -1.372,-3.063 -2.894,-3.063c-1.522,0 -2.44,1.541 -2.44,3.063c-0,1.525 0.918,2.425 2.44,2.425Z" style="fill:#fff;fill-rule:nonzero;"/><path d="M28.122,292.472c-1.522,-0 -3.138,1.728 -3.138,3.25c0,1.525 1.616,2.575 3.138,2.575c1.522,-0 2.265,-1.05 2.265,-2.575c0,-1.522 -0.743,-3.25 -2.265,-3.25Z" style="fill:#fff;fill-rule:nonzero;"/><path d="M470.778,209.803c1.525,0 3.228,-1.072 3.228,-2.597c0,-1.518 -1.703,-3.122 -3.228,-3.122c-1.522,0 -3.203,1.604 -3.203,3.122c0,1.525 1.681,2.597 3.203,2.597Z" style="fill:#fff;fill-rule:nonzero;"/><path d="M477.356,352.306c1.522,0 2.819,-0.812 2.819,-2.334c0,-1.525 -1.297,-3.038 -2.819,-3.038c-1.522,0 -2.256,1.513 -2.256,3.038c-0,1.522 0.734,2.334 2.256,2.334Z" style="fill:#fff;fill-rule:nonzero;"/><path d="M467.281,390.338c1.525,-0 2.816,-1.691 2.816,-3.216c-0,-1.522 -1.291,-2.463 -2.816,-2.463c-1.522,0 -2.478,0.941 -2.478,2.463c0,1.525 0.956,3.216 2.478,3.216Z" style="fill:#fff;fill-rule:nonzero;"/><path d="M491.291,272.438c1.522,-0 2.575,-1.419 2.575,-2.941c-0,-1.522 -1.053,-3.134 -2.575,-3.134c-1.522,-0 -2.725,1.612 -2.725,3.134c-0,1.522 1.203,2.941 2.725,2.941Z" style="fill:#fff;fill-rule:nonzero;"/><path d="M255.194,107.994c1.522,-0 2.5,-1.01 2.5,-2.531c-0,-1.525 -0.978,-2.847 -2.5,-2.847c-1.522,-0 -2.475,1.322 -2.475,2.847c-0,1.521 0.953,2.531 2.475,2.531Z" style="fill:#fff;fill-rule:nonzero;"/><path d="M483.256,306.181c0,1.522 1.219,2.503 2.744,2.503c1.522,0 2.984,-0.981 2.984,-2.503c0,-1.522 -1.462,-2.837 -2.984,-2.837c-1.525,-0 -2.744,1.315 -2.744,2.837Z" style="fill:#fff;fill-rule:nonzero;"/><path d="M335.428,150.203c1.522,0 2.319,-1.74 2.319,-3.262c-0,-1.522 -0.797,-2.772 -2.319,-2.772c-1.522,-0 -2.472,1.25 -2.472,2.772c0,1.522 0.95,3.262 2.472,3.262Z" style="fill:#fff;fill-rule:nonzero;"/><path d="M478.353,50.094c1.525,-0 2.725,-1.681 2.725,-3.206c0,-1.522 -1.2,-2.854 -2.725,-2.854c-1.522,0 -2.822,1.332 -2.822,2.854c0,1.525 1.3,3.206 2.822,3.206Z" style="fill:#fff;fill-rule:nonzero;"/><path d="M425.597,96.831c1.525,0 2.569,-1.315 2.569,-2.837c-0,-1.525 -1.044,-2.582 -2.569,-2.582c-1.522,0 -2.456,1.057 -2.456,2.582c-0,1.522 0.934,2.837 2.456,2.837Z" style="fill:#fff;fill-rule:nonzero;"/><path d="M398.178,24.338c1.522,-0 2.706,-1.45 2.706,-2.975c0,-1.522 -1.184,-2.472 -2.706,-2.472c-1.522,-0 -2.875,0.95 -2.875,2.472c0,1.525 1.353,2.975 2.875,2.975Z" style="fill:#fff;fill-rule:nonzero;"/><path d="M364.956,124.966c1.522,-0 2.81,-1.575 2.81,-3.097c-0,-1.525 -1.288,-2.553 -2.81,-2.553c-1.522,-0 -2.478,1.028 -2.478,2.553c0,1.522 0.956,3.097 2.478,3.097Z" style="fill:#fff;fill-rule:nonzero;"/><path d="M81.681,445.916c-1.525,-0 -2.784,1.456 -2.784,2.978c-0,1.522 1.259,2.237 2.784,2.237c1.522,0 2.363,-0.715 2.363,-2.237c-0,-1.522 -0.841,-2.978 -2.363,-2.978Z" style="fill:#fff;fill-rule:nonzero;"/><path d="M229.9,273.35c-1.522,0 -3.306,1.225 -3.306,2.747c-0,1.522 1.784,3.044 3.306,3.044c1.525,-0 3.181,-1.522 3.181,-3.044c0,-1.522 -1.656,-2.747 -3.181,-2.747Z" style="fill:#fff;fill-rule:nonzero;"/><path d="M337.6,333.394c-0,-1.525 -1.203,-2.897 -2.725,-2.897c-1.522,-0 -3.059,1.372 -3.059,2.897c-0,1.522 1.537,2.515 3.059,2.515c1.522,0 2.725,-0.993 2.725,-2.515Z" style="fill:#fff;fill-rule:nonzero;"/><path d="M360.491,175.759c1.525,0 2.612,-1.768 2.612,-3.29c0,-1.522 -1.087,-2.51 -2.612,-2.51c-1.522,0 -2.738,0.988 -2.738,2.51c0,1.522 1.216,3.29 2.738,3.29Z" style="fill:#fff;fill-rule:nonzero;"/><path d="M342.903,99.594c-1.522,-0 -2.391,1.228 -2.391,2.753c0,1.522 0.869,2.394 2.391,2.394c1.525,-0 2.997,-0.872 2.997,-2.394c-0,-1.525 -1.472,-2.753 -2.997,-2.753Z" style="fill:#fff;fill-rule:nonzero;"/><path d="M375.019,205.813c-0,1.521 1.593,2.396 3.115,2.396c1.522,0 2.607,-0.875 2.607,-2.396c-0,-1.522 -1.085,-2.794 -2.607,-2.794c-1.522,-0 -3.115,1.272 -3.115,2.794Z" style="fill:#fff;fill-rule:nonzero;"/><path d="M450.994,127.278c1.525,0 2.803,-1.506 2.803,-3.031c-0,-1.525 -1.278,-2.838 -2.803,-2.838c-1.522,0 -2.985,1.313 -2.985,2.838c0,1.525 1.463,3.031 2.985,3.031Z" style="fill:#fff;fill-rule:nonzero;"/><path d="M409.731,293.038c1.525,-0 2.385,-1.175 2.385,-2.697c-0,-1.525 -0.86,-2.603 -2.385,-2.603c-1.522,-0 -2.443,1.078 -2.443,2.603c-0,1.522 0.921,2.697 2.443,2.697Z" style="fill:#fff;fill-rule:nonzero;"/><path d="M64.731,352.166c1.522,-0 2.347,-1.772 2.347,-3.297c0,-1.522 -0.825,-2.703 -2.347,-2.703c-1.522,-0 -2.84,1.181 -2.84,2.703c-0,1.525 1.318,3.297 2.84,3.297Z" style="fill:#fff;fill-rule:nonzero;"/><path d="M342.191,71.241c1.522,-0 3.003,-0.969 3.003,-2.491c-0,-1.525 -1.481,-2.734 -3.003,-2.734c-1.522,-0 -3.257,1.209 -3.257,2.734c0,1.522 1.735,2.491 3.257,2.491Z" style="fill:#fff;fill-rule:nonzero;"/><path d="M173.763,226.575c-1.522,0 -2.535,0.997 -2.535,2.519c0,1.522 1.013,2.24 2.535,2.24c1.528,0 2.728,-0.718 2.728,-2.24c-0,-1.522 -1.2,-2.519 -2.728,-2.519Z" style="fill:#fff;fill-rule:nonzero;"/><path d="M120.65,185.438c1.525,-0 2.741,-1.747 2.741,-3.269c-0,-1.525 -1.216,-2.463 -2.741,-2.463c-1.522,0 -2.909,0.938 -2.909,2.463c-0,1.522 1.387,3.269 2.909,3.269Z" style="fill:#fff;fill-rule:nonzero;"/><path d="M19.916,25.178c1.525,0 3.043,-0.719 3.043,-2.244c0,-1.525 -1.518,-2.85 -3.043,-2.85c-1.522,0 -3.26,1.325 -3.26,2.85c0,1.525 1.738,2.244 3.26,2.244Z" style="fill:#fff;fill-rule:nonzero;"/><path d="M374.466,54.825c1.521,0 2.578,-1.737 2.578,-3.259c-0,-1.525 -1.057,-2.463 -2.578,-2.463c-1.522,0 -2.741,0.938 -2.741,2.463c0,1.522 1.219,3.259 2.741,3.259Z" style="fill:#fff;fill-rule:nonzero;"/><path d="M272.006,501.294c1.522,-0 3.222,-1.406 3.222,-2.928c0,-1.522 -1.7,-2.963 -3.222,-2.963c-1.522,0 -2.818,1.441 -2.818,2.963c-0,1.522 1.296,2.928 2.818,2.928Z" style="fill:#fff;fill-rule:nonzero;"/><path d="M28.934,352.878c0,1.525 1.503,2.735 3.029,2.735c1.521,-0 3.012,-1.21 3.012,-2.735c0,-1.522 -1.491,-2.887 -3.012,-2.887c-1.526,-0 -3.029,1.365 -3.029,2.887Z" style="fill:#fff;fill-rule:nonzero;"/><path d="M483.119,183.391c1.522,-0 2.518,-0.847 2.518,-2.372c0,-1.522 -0.996,-3.116 -2.518,-3.116c-1.525,0 -2.806,1.594 -2.806,3.116c-0,1.525 1.281,2.372 2.806,2.372Z" style="fill:#fff;fill-rule:nonzero;"/><path d="M497.288,89.119c1.521,-0 3.162,-0.744 3.162,-2.266c-0,-1.525 -1.641,-3.253 -3.162,-3.253c-1.522,-0 -2.507,1.728 -2.507,3.253c0,1.522 0.985,2.266 2.507,2.266Z" style="fill:#fff;fill-rule:nonzero;"/><path d="M419.037,435.141c1.522,-0 2.563,-0.8 2.563,-2.322c-0,-1.525 -1.041,-3.11 -2.563,-3.11c-1.524,0 -2.668,1.585 -2.668,3.11c-0,1.522 1.144,2.322 2.668,2.322Z" style="fill:#fff;fill-rule:nonzero;"/><path d="M200.887,281.278c-1.521,0 -2.425,1.46 -2.425,2.981c0,1.525 0.904,2.766 2.425,2.766c1.522,0 2.247,-1.241 2.247,-2.766c0,-1.521 -0.725,-2.981 -2.247,-2.981Z" style="fill:#fff;fill-rule:nonzero;"/><path d="M246.881,387.222c-1.522,-0 -2.725,1.125 -2.725,2.647c0,1.525 1.203,3.097 2.725,3.097c1.522,-0 2.857,-1.572 2.857,-3.097c-0,-1.522 -1.335,-2.647 -2.857,-2.647Z" style="fill:#fff;fill-rule:nonzero;"/><path d="M435.578,220.816c1.522,-0 2.328,-1.369 2.328,-2.891c0,-1.522 -0.806,-2.678 -2.328,-2.678c-1.528,-0 -3.05,1.156 -3.05,2.678c0,1.522 1.522,2.891 3.05,2.891Z" style="fill:#fff;fill-rule:nonzero;"/><path d="M81.941,291.591c1.522,-0 2.331,-1.2 2.331,-2.722c-0,-1.522 -0.809,-2.744 -2.331,-2.744c-1.525,0 -2.447,1.222 -2.447,2.744c-0,1.522 0.922,2.722 2.447,2.722Z" style="fill:#fff;fill-rule:nonzero;"/><path d="M118.85,238.109c1.525,0 2.894,-1.256 2.894,-2.781c-0,-1.522 -1.369,-2.437 -2.894,-2.437c-1.522,-0 -2.894,0.915 -2.894,2.437c0,1.525 1.372,2.781 2.894,2.781Z" style="fill:#fff;fill-rule:nonzero;"/><path d="M458.972,86.819c-0,1.522 1.531,2.747 3.056,2.747c1.522,-0 2.963,-1.225 2.963,-2.747c-0,-1.522 -1.441,-2.378 -2.963,-2.378c-1.525,-0 -3.056,0.856 -3.056,2.378Z" style="fill:#fff;fill-rule:nonzero;"/><path d="M470.475,153.094c1.522,-0 2.375,-0.813 2.375,-2.335c0,-1.525 -0.853,-2.393 -2.375,-2.393c-1.525,-0 -2.687,0.868 -2.687,2.393c-0,1.522 1.162,2.335 2.687,2.335Z" style="fill:#fff;fill-rule:nonzero;"/><path d="M79.834,1.772c0,1.522 1.782,3.069 3.304,3.069c1.524,-0 2.278,-1.547 2.278,-3.069c-0,-0.738 -0.185,-1.344 -0.538,-1.772l-4.012,-0c-0.607,0.428 -1.032,1.034 -1.032,1.772Z" style="fill:#fff;fill-rule:nonzero;"/><path d="M18.981,56.6c0,1.522 1.553,3.175 3.078,3.175c1.522,0 2.969,-1.653 2.969,-3.175c0,-1.522 -1.447,-2.781 -2.969,-2.781c-1.525,-0 -3.078,1.259 -3.078,2.781Z" style="fill:#fff;fill-rule:nonzero;"/><path d="M112.653,20.634c1.522,0 2.419,-1.272 2.419,-2.793c-0,-1.525 -0.897,-2.919 -2.419,-2.919c-1.522,-0 -2.525,1.394 -2.525,2.919c0,1.521 1.003,2.793 2.525,2.793Z" style="fill:#fff;fill-rule:nonzero;"/><path d="M173.131,76.766c1.525,-0 2.269,-0.769 2.269,-2.291c-0,-1.525 -0.744,-3.034 -2.269,-3.034c-1.522,-0 -2.847,1.509 -2.847,3.034c0,1.522 1.325,2.291 2.847,2.291Z" style="fill:#fff;fill-rule:nonzero;"/><path d="M285.522,49.084c1.522,0 2.462,-1.334 2.462,-2.853c0,-1.525 -0.94,-3.178 -2.462,-3.178c-1.522,0 -2.513,1.653 -2.513,3.178c0,1.519 0.991,2.853 2.513,2.853Z" style="fill:#fff;fill-rule:nonzero;"/><path d="M84.616,377.422c-1.522,-0 -2.641,0.972 -2.641,2.494c-0,1.522 1.119,2.45 2.641,2.45c1.522,-0 2.74,-0.928 2.74,-2.45c0,-1.522 -1.218,-2.494 -2.74,-2.494Z" style="fill:#fff;fill-rule:nonzero;"/><path d="M55.725,69.625c1.522,-0 2.553,-1.137 2.553,-2.662c0,-1.522 -1.031,-2.216 -2.553,-2.216c-1.522,-0 -2.25,0.694 -2.25,2.216c-0,1.525 0.728,2.662 2.25,2.662Z" style="fill:#fff;fill-rule:nonzero;"/><path d="M13.316,166.809c1.521,0 2.634,-0.759 2.634,-2.281c0,-1.522 -1.113,-2.678 -2.634,-2.678c-1.525,0 -2.654,1.156 -2.654,2.678c0,1.522 1.129,2.281 2.654,2.281Z" style="fill:#fff;fill-rule:nonzero;"/><path d="M280.506,96.422c1.522,-0 2.288,-0.691 2.288,-2.213c-0,-1.521 -0.766,-3.131 -2.288,-3.131c-1.525,0 -2.537,1.61 -2.537,3.131c-0,1.522 1.012,2.213 2.537,2.213Z" style="fill:#fff;fill-rule:nonzero;"/><path d="M212.584,171.847c0,-1.525 -1.434,-2.459 -2.956,-2.459c-1.522,-0 -2.365,0.934 -2.365,2.459c-0,1.522 0.843,2.428 2.365,2.428c1.522,0 2.956,-0.906 2.956,-2.428Z" style="fill:#fff;fill-rule:nonzero;"/><path d="M95,120.319c0,1.522 1.347,2.847 2.869,2.847c1.525,-0 2.944,-1.325 2.944,-2.847c-0,-1.525 -1.419,-2.406 -2.944,-2.406c-1.522,-0 -2.869,0.881 -2.869,2.406Z" style="fill:#fff;fill-rule:nonzero;"/><path d="M29.259,250.138c0,-1.522 -1.396,-2.297 -2.918,-2.297c-1.525,-0 -3.075,0.775 -3.075,2.297c-0,1.525 1.55,2.565 3.075,2.565c1.522,0 2.918,-1.04 2.918,-2.565Z" style="fill:#fff;fill-rule:nonzero;"/><path d="M65.094,118.109c1.522,0 2.631,-0.881 2.631,-2.403c-0,-1.522 -1.109,-2.359 -2.631,-2.359c-1.522,-0 -2.966,0.837 -2.966,2.359c0,1.522 1.444,2.403 2.966,2.403Z" style="fill:#fff;fill-rule:nonzero;"/><path d="M94.4,212.081c1.522,0 3.028,-1.743 3.028,-3.265c0,-1.522 -1.506,-2.51 -3.028,-2.51c-1.522,0 -3.194,0.988 -3.194,2.51c0,1.522 1.672,3.265 3.194,3.265Z" style="fill:#fff;fill-rule:nonzero;"/><path d="M410.456,62.897c1.522,-0 3.06,-1.281 3.06,-2.803c-0,-1.522 -1.538,-2.316 -3.06,-2.316c-1.525,0 -3.147,0.794 -3.147,2.316c0,1.522 1.622,2.803 3.147,2.803Z" style="fill:#fff;fill-rule:nonzero;"/><path d="M87.184,170.409c1.525,0 2.285,-0.784 2.285,-2.306c-0,-1.525 -0.76,-2.912 -2.285,-2.912c-1.522,-0 -2.859,1.387 -2.859,2.912c0,1.522 1.337,2.306 2.859,2.306Z" style="fill:#fff;fill-rule:nonzero;"/><path d="M229.303,330.497c1.522,-0 2.234,-1.138 2.234,-2.659c0,-1.525 -0.712,-2.413 -2.234,-2.413c-1.522,0 -3.012,0.888 -3.012,2.413c-0,1.521 1.49,2.659 3.012,2.659Z" style="fill:#fff;fill-rule:nonzero;"/><path d="M229.722,237.947c-0,1.522 1.294,3.278 2.815,3.278c1.522,0 3.022,-1.756 3.022,-3.278c0,-1.525 -1.5,-2.572 -3.022,-2.572c-1.521,0 -2.815,1.047 -2.815,2.572Z" style="fill:#fff;fill-rule:nonzero;"/><path d="M327.184,46.019c1.525,-0 2.213,-1.572 2.213,-3.094c-0,-1.522 -0.688,-3.25 -2.213,-3.25c-1.521,-0 -2.715,1.728 -2.715,3.25c-0,1.522 1.194,3.094 2.715,3.094Z" style="fill:#fff;fill-rule:nonzero;"/><path d="M0,227.753l0,4c0.466,-0.584 0.753,-1.34 0.753,-2.081c0,-0.747 -0.287,-1.416 -0.753,-1.919Z" style="fill:#fff;fill-rule:nonzero;"/><path d="M50.444,13.834c1.522,0 2.484,-1.44 2.484,-2.962c0,-1.522 -0.962,-2.828 -2.484,-2.828c-1.525,-0 -3.078,1.306 -3.078,2.828c-0,1.522 1.553,2.962 3.078,2.962Z" style="fill:#fff;fill-rule:nonzero;"/><path d="M81.794,244.594c1.522,-0 2.49,-1.5 2.49,-3.025c0,-1.522 -0.968,-3.013 -2.49,-3.013c-1.522,0 -3.206,1.491 -3.206,3.013c-0,1.525 1.684,3.025 3.206,3.025Z" style="fill:#fff;fill-rule:nonzero;"/><path d="M242.959,42.756c1.522,0 2.522,-0.922 2.522,-2.443c0,-1.522 -1,-2.254 -2.522,-2.254c-1.521,0 -2.393,0.732 -2.393,2.254c-0,1.521 0.872,2.443 2.393,2.443Z" style="fill:#fff;fill-rule:nonzero;"/><path d="M69.759,43.253c1.525,0 2.522,-0.928 2.522,-2.453c0,-1.522 -0.997,-3.278 -2.522,-3.278c-1.522,-0 -3.134,1.756 -3.134,3.278c0,1.525 1.612,2.453 3.134,2.453Z" style="fill:#fff;fill-rule:nonzero;"/><path d="M423.428,140.85c1.522,0 3.272,-1.359 3.272,-2.881c0,-1.522 -1.75,-2.247 -3.272,-2.247c-1.522,-0 -2.253,0.725 -2.253,2.247c0,1.522 0.731,2.881 2.253,2.881Z" style="fill:#fff;fill-rule:nonzero;"/><path d="M284.309,237.672c0,-1.522 -1.59,-2.478 -3.115,-2.478c-1.522,-0 -2.91,0.956 -2.91,2.478c0,1.525 1.388,2.619 2.91,2.619c1.525,-0 3.115,-1.094 3.115,-2.619Z" style="fill:#fff;fill-rule:nonzero;"/><path d="M253.203,218.928c1.525,0 2.269,-1.35 2.269,-2.875c-0,-1.522 -0.744,-2.54 -2.269,-2.54c-1.522,-0 -2.4,1.018 -2.4,2.54c0,1.525 0.878,2.875 2.4,2.875Z" style="fill:#fff;fill-rule:nonzero;"/><path d="M145.384,246.328c-1.521,0 -2.909,1.653 -2.909,3.175c-0,1.525 1.388,2.938 2.909,2.938c1.525,-0 2.585,-1.413 2.585,-2.938c-0,-1.522 -1.06,-3.175 -2.585,-3.175Z" style="fill:#fff;fill-rule:nonzero;"/><path d="M334.15,260.416c-0,1.522 0.891,2.84 2.413,2.84c1.521,0 3.162,-1.318 3.162,-2.84c0,-1.525 -1.641,-3.066 -3.162,-3.066c-1.522,0 -2.413,1.541 -2.413,3.066Z" style="fill:#fff;fill-rule:nonzero;"/><path d="M398.644,233.881c-0,1.525 0.843,2.494 2.365,2.494c1.525,0 2.232,-0.969 2.232,-2.494c-0,-1.522 -0.707,-2.493 -2.232,-2.493c-1.522,-0 -2.365,0.971 -2.365,2.493Z" style="fill:#fff;fill-rule:nonzero;"/><path d="M439.7,180.016c-0,1.522 1.597,2.837 3.119,2.837c1.522,0 2.922,-1.315 2.922,-2.837c-0,-1.522 -1.4,-2.241 -2.922,-2.241c-1.522,0 -3.119,0.719 -3.119,2.241Z" style="fill:#fff;fill-rule:nonzero;"/><path d="M418.072,518.963c1.522,-0 2.609,-0.816 2.609,-2.338c0,-1.522 -1.087,-3.044 -2.609,-3.044c-1.522,0 -2.55,1.522 -2.55,3.044c-0,1.522 1.028,2.338 2.55,2.338Z" style="fill:#fff;fill-rule:nonzero;"/><path d="M258.206,350.847c-1.522,-0 -2.309,1.622 -2.309,3.144c-0,1.522 0.787,3.225 2.309,3.225c1.522,-0 3.257,-1.703 3.257,-3.225c-0,-1.522 -1.735,-3.144 -3.257,-3.144Z" style="fill:#fff;fill-rule:nonzero;"/><path d="M440.653,459.891c-1.525,-0 -2.266,1.143 -2.266,2.665c0,1.522 0.741,2.547 2.266,2.547c1.522,0 2.206,-1.025 2.206,-2.547c0,-1.522 -0.684,-2.665 -2.206,-2.665Z" style="fill:#fff;fill-rule:nonzero;"/><path d="M284.153,139.9c0,-1.522 -1.04,-2.797 -2.565,-2.797c-1.522,0 -2.716,1.275 -2.716,2.797c-0,1.522 1.194,3.119 2.716,3.119c1.525,-0 2.565,-1.597 2.565,-3.119Z" style="fill:#fff;fill-rule:nonzero;"/><path d="M311.1,89.403c1.522,0 3.278,-1.144 3.278,-2.669c0,-1.521 -1.756,-3.053 -3.278,-3.053c-1.525,0 -3.188,1.532 -3.188,3.053c0,1.525 1.663,2.669 3.188,2.669Z" style="fill:#fff;fill-rule:nonzero;"/><path d="M186.737,202.159c0,-1.521 -1.59,-2.9 -3.112,-2.9c-1.525,0 -2.312,1.379 -2.312,2.9c-0,1.522 0.787,2.307 2.312,2.307c1.522,-0 3.112,-0.785 3.112,-2.307Z" style="fill:#fff;fill-rule:nonzero;"/><path d="M439.891,63.466c1.522,-0 2.718,-0.788 2.718,-2.31c0,-1.522 -1.196,-2.45 -2.718,-2.45c-1.525,0 -2.772,0.928 -2.772,2.45c-0,1.522 1.247,2.31 2.772,2.31Z" style="fill:#fff;fill-rule:nonzero;"/><path d="M101.1,409.456c-0,-1.525 -0.891,-2.737 -2.412,-2.737c-1.522,-0 -2.816,1.212 -2.816,2.737c-0,1.522 1.294,2.803 2.816,2.803c1.521,0 2.412,-1.281 2.412,-2.803Z" style="fill:#fff;fill-rule:nonzero;"/><path d="M66.887,194.278c-1.521,0 -2.993,1.281 -2.993,2.803c-0,1.522 1.472,2.997 2.993,2.997c1.526,0 2.385,-1.475 2.385,-2.997c-0,-1.522 -0.859,-2.803 -2.385,-2.803Z" style="fill:#fff;fill-rule:nonzero;"/><path d="M396.019,118.541c-0,1.522 1.7,2.665 3.222,2.665c1.522,0 2.547,-1.143 2.547,-2.665c-0,-1.522 -1.025,-2.769 -2.547,-2.769c-1.522,-0 -3.222,1.247 -3.222,2.769Z" style="fill:#fff;fill-rule:nonzero;"/><path d="M97.35,87.097c-1.522,-0 -2.916,1.406 -2.916,2.928c0,1.522 1.394,2.819 2.916,2.819c1.525,-0 2.816,-1.297 2.816,-2.819c-0,-1.522 -1.291,-2.928 -2.816,-2.928Z" style="fill:#fff;fill-rule:nonzero;"/><path d="M492.25,127.653c1.525,0 2.844,-1.378 2.844,-2.903c-0,-1.522 -1.319,-2.344 -2.844,-2.344c-1.522,0 -2.897,0.822 -2.897,2.344c0,1.525 1.375,2.903 2.897,2.903Z" style="fill:#fff;fill-rule:nonzero;"/><path d="M96.741,56.55c1.522,0 2.725,-0.766 2.725,-2.287c-0,-1.522 -1.203,-2.307 -2.725,-2.307c-1.522,0 -2.332,0.785 -2.332,2.307c0,1.521 0.81,2.287 2.332,2.287Z" style="fill:#fff;fill-rule:nonzero;"/><path d="M291.15,206.25c1.522,0 2.381,-1.331 2.381,-2.856c0,-1.522 -0.859,-2.853 -2.381,-2.853c-1.522,-0 -2.231,1.331 -2.231,2.853c-0,1.525 0.709,2.856 2.231,2.856Z" style="fill:#fff;fill-rule:nonzero;"/><path d="M359.194,505.313c-1.522,-0 -2.682,1.053 -2.682,2.575c0,1.521 1.16,2.59 2.682,2.59c1.525,0 3.309,-1.069 3.309,-2.59c0,-1.522 -1.784,-2.575 -3.309,-2.575Z" style="fill:#fff;fill-rule:nonzero;"/><path d="M81.284,322.813c1.522,-0 2.71,-1.407 2.71,-2.929c-0,-1.521 -1.188,-3.134 -2.71,-3.134c-1.525,0 -2.359,1.613 -2.359,3.134c-0,1.522 0.834,2.929 2.359,2.929Z" style="fill:#fff;fill-rule:nonzero;"/><path d="M199.678,315.188c0,1.521 1.178,2.296 2.703,2.296c1.522,0 2.588,-0.775 2.588,-2.296c-0,-1.522 -1.066,-2.985 -2.588,-2.985c-1.525,0 -2.703,1.463 -2.703,2.985Z" style="fill:#fff;fill-rule:nonzero;"/><path d="M303.566,19.744c1.521,-0 2.881,-1.525 2.881,-3.05c-0,-1.522 -1.36,-2.669 -2.881,-2.669c-1.525,0 -3.294,1.147 -3.294,2.669c-0,1.525 1.769,3.05 3.294,3.05Z" style="fill:#fff;fill-rule:nonzero;"/><path d="M480.472,498.931c-0,-1.525 -0.809,-2.79 -2.331,-2.79c-1.522,-0 -2.954,1.265 -2.954,2.79c0,1.522 1.432,3.172 2.954,3.172c1.522,0 2.331,-1.65 2.331,-3.172Z" style="fill:#fff;fill-rule:nonzero;"/><path d="M136.484,337.95c1.522,0 2.603,-1.731 2.603,-3.253c0,-1.522 -1.081,-2.722 -2.603,-2.722c-1.525,0 -2.978,1.2 -2.978,2.722c0,1.522 1.453,3.253 2.978,3.253Z" style="fill:#fff;fill-rule:nonzero;"/><path d="M329.353,223.338c1.522,-0 3.269,-1.254 3.269,-2.775c-0,-1.525 -1.747,-2.591 -3.269,-2.591c-1.525,-0 -3.187,1.066 -3.187,2.591c-0,1.521 1.662,2.775 3.187,2.775Z" style="fill:#fff;fill-rule:nonzero;"/><path d="M479.119,467.903c-0,-1.522 -1.628,-2.747 -3.15,-2.747c-1.525,0 -3,1.225 -3,2.747c-0,1.522 1.475,2.394 3,2.394c1.522,-0 3.15,-0.872 3.15,-2.394Z" style="fill:#fff;fill-rule:nonzero;"/><path d="M410.831,188.506c-1.522,0 -2.244,1.716 -2.244,3.238c0,1.522 0.722,3.134 2.244,3.134c1.522,0 2.591,-1.612 2.591,-3.134c-0,-1.522 -1.069,-3.238 -2.591,-3.238Z" style="fill:#fff;fill-rule:nonzero;"/><path d="M361.409,234.381c-1.521,0 -2.984,1.672 -2.984,3.194c-0,1.522 1.463,2.294 2.984,2.294c1.525,-0 2.513,-0.772 2.513,-2.294c-0,-1.522 -0.988,-3.194 -2.513,-3.194Z" style="fill:#fff;fill-rule:nonzero;"/><path d="M222.641,360.425c-1.522,0 -2.266,1.216 -2.266,2.738c0,1.525 0.744,3.065 2.266,3.065c1.521,0 2.515,-1.54 2.515,-3.065c0,-1.522 -0.994,-2.738 -2.515,-2.738Z" style="fill:#fff;fill-rule:nonzero;"/><path d="M135.513,407.391c1.524,-0 2.693,-1.475 2.693,-2.997c0,-1.522 -1.169,-2.288 -2.693,-2.288c-1.522,0 -2.604,0.766 -2.604,2.288c0,1.522 1.082,2.997 2.604,2.997Z" style="fill:#fff;fill-rule:nonzero;"/><path d="M385.178,91.325c1.522,-0 2.994,-1.472 2.994,-2.997c-0,-1.522 -1.472,-2.344 -2.994,-2.344c-1.522,0 -2.234,0.822 -2.234,2.344c-0,1.525 0.712,2.997 2.234,2.997Z" style="fill:#fff;fill-rule:nonzero;"/><path d="M500.397,414.566c-0,1.522 1.484,3.147 3.006,3.147c1.522,-0 2.434,-1.625 2.434,-3.147c0,-1.525 -0.912,-2.322 -2.434,-2.322c-1.522,-0 -3.006,0.797 -3.006,2.322Z" style="fill:#fff;fill-rule:nonzero;"/><path d="M499.131,214.988c0,1.525 1.222,3.071 2.747,3.071c1.522,0 2.522,-1.546 2.522,-3.071c0,-1.522 -1,-2.282 -2.522,-2.282c-1.525,0 -2.747,0.76 -2.747,2.282Z" style="fill:#fff;fill-rule:nonzero;"/><path d="M333.319,189.063c1.522,-0 2.456,-1.432 2.456,-2.954c-0,-1.521 -0.934,-3.106 -2.456,-3.106c-1.522,0 -3.203,1.585 -3.203,3.106c-0,1.522 1.681,2.954 3.203,2.954Z" style="fill:#fff;fill-rule:nonzero;"/><path d="M462.584,236.025c-1.522,0 -2.959,0.841 -2.959,2.366c0,1.522 1.437,2.762 2.959,2.762c1.525,0 2.297,-1.24 2.297,-2.762c0,-1.525 -0.772,-2.366 -2.297,-2.366Z" style="fill:#fff;fill-rule:nonzero;"/><path d="M497.509,19.931c1.522,0 2.344,-1.665 2.344,-3.187c0,-1.525 -0.822,-3.066 -2.344,-3.066c-1.521,0 -2.468,1.541 -2.468,3.066c-0,1.522 0.947,3.187 2.468,3.187Z" style="fill:#fff;fill-rule:nonzero;"/><path d="M457.844,25.391c1.522,-0 3.081,-1.138 3.081,-2.66c0,-1.522 -1.559,-2.647 -3.081,-2.647c-1.525,0 -2.519,1.125 -2.519,2.647c-0,1.522 0.994,2.66 2.519,2.66Z" style="fill:#fff;fill-rule:nonzero;"/><path d="M430.056,15.091c1.522,-0 2.785,-1.413 2.785,-2.938c-0,-1.522 -1.263,-3.306 -2.785,-3.306c-1.522,-0 -2.259,1.784 -2.259,3.306c-0,1.525 0.737,2.938 2.259,2.938Z" style="fill:#fff;fill-rule:nonzero;"/><path d="M0,489.178l0,2.347c0.166,-0.378 0.259,-0.778 0.259,-1.175c0,-0.397 -0.093,-0.794 -0.259,-1.172Z" style="fill:#fff;fill-rule:nonzero;"/><path d="M167.028,492.753c0,1.525 0.788,2.95 2.309,2.95c1.526,0 3.013,-1.425 3.013,-2.95c0,-1.522 -1.487,-3.112 -3.013,-3.112c-1.521,-0 -2.309,1.59 -2.309,3.112Z" style="fill:#fff;fill-rule:nonzero;"/><path d="M185.913,356.188c-0,1.521 0.759,2.862 2.284,2.862c1.522,0 3.225,-1.341 3.225,-2.862c-0,-1.522 -1.703,-2.979 -3.225,-2.979c-1.525,0 -2.284,1.457 -2.284,2.979Z" style="fill:#fff;fill-rule:nonzero;"/><path d="M196.784,422.538c0,1.525 1.547,2.828 3.069,2.828c1.522,-0 2.5,-1.303 2.5,-2.828c0,-1.522 -0.978,-3.075 -2.5,-3.075c-1.522,-0 -3.069,1.553 -3.069,3.075Z" style="fill:#fff;fill-rule:nonzero;"/><path d="M342.534,10.931c1.525,0 2.238,-1.472 2.238,-2.993c-0,-1.525 -0.713,-3.219 -2.238,-3.219c-1.521,-0 -2.325,1.694 -2.325,3.219c0,1.521 0.804,2.993 2.325,2.993Z" style="fill:#fff;fill-rule:nonzero;"/><path d="M452.366,334.688c-1.522,-0 -3.197,0.959 -3.197,2.481c-0,1.522 1.675,2.903 3.197,2.903c1.522,-0 3.015,-1.381 3.015,-2.903c0,-1.522 -1.493,-2.481 -3.015,-2.481Z" style="fill:#fff;fill-rule:nonzero;"/><path d="M355.85,400.775c1.522,0 2.556,-0.962 2.556,-2.484c0,-1.525 -1.034,-2.919 -2.556,-2.919c-1.522,-0 -2.819,1.394 -2.819,2.919c0,1.522 1.297,2.484 2.819,2.484Z" style="fill:#fff;fill-rule:nonzero;"/><path d="M497.934,372.953c-1.522,0 -2.825,0.716 -2.825,2.238c0,1.522 1.303,2.903 2.825,2.903c1.522,-0 3.26,-1.381 3.26,-2.903c-0,-1.522 -1.738,-2.238 -3.26,-2.238Z" style="fill:#fff;fill-rule:nonzero;"/><path d="M27.831,208.456c1.525,0 2.213,-1.387 2.213,-2.906c-0,-1.525 -0.688,-2.678 -2.213,-2.678c-1.522,-0 -2.303,1.153 -2.303,2.678c0,1.519 0.781,2.906 2.303,2.906Z" style="fill:#fff;fill-rule:nonzero;"/><path d="M99.769,341.931c-0,1.522 1.644,2.816 3.165,2.816c1.525,-0 2.604,-1.294 2.604,-2.816c-0,-1.525 -1.079,-2.85 -2.604,-2.85c-1.521,0 -3.165,1.325 -3.165,2.85Z" style="fill:#fff;fill-rule:nonzero;"/><path d="M442.053,301.434c0,1.522 0.978,3.185 2.503,3.185c1.522,-0 3.069,-1.663 3.069,-3.185c-0,-1.525 -1.547,-3.215 -3.069,-3.215c-1.525,-0 -2.503,1.69 -2.503,3.215Z" style="fill:#fff;fill-rule:nonzero;"/><path d="M363.703,338.981c0,1.522 0.95,3.272 2.475,3.272c1.522,0 2.463,-1.75 2.463,-3.272c-0,-1.522 -0.941,-2.428 -2.463,-2.428c-1.525,0 -2.475,0.906 -2.475,2.428Z" style="fill:#fff;fill-rule:nonzero;"/><path d="M307.656,466.35c-1.522,0 -2.759,1.541 -2.759,3.063c-0,1.525 1.237,2.712 2.759,2.712c1.522,0 2.86,-1.187 2.86,-2.712c-0,-1.522 -1.338,-3.063 -2.86,-3.063Z" style="fill:#fff;fill-rule:nonzero;"/><path d="M311.269,119.875c-1.522,0 -2.732,1.363 -2.732,2.888c0,1.521 1.21,2.628 2.732,2.628c1.525,-0 3.15,-1.107 3.15,-2.628c-0,-1.525 -1.625,-2.888 -3.15,-2.888Z" style="fill:#fff;fill-rule:nonzero;"/><path d="M162.991,149.894c1.525,-0 2.356,-1.453 2.356,-2.978c-0,-1.522 -0.831,-2.394 -2.356,-2.394c-1.522,-0 -2.657,0.872 -2.657,2.394c0,1.525 1.135,2.978 2.657,2.978Z" style="fill:#fff;fill-rule:nonzero;"/><path d="M40.209,164.747c0,1.528 0.904,2.3 2.428,2.3c1.522,-0 2.844,-0.772 2.844,-2.3c0,-1.519 -1.322,-2.469 -2.844,-2.469c-1.524,0 -2.428,0.95 -2.428,2.469Z" style="fill:#fff;fill-rule:nonzero;"/><path d="M260.362,69.734c1.526,0 2.797,-1.756 2.797,-3.281c0,-1.522 -1.271,-3.084 -2.797,-3.084c-1.521,-0 -2.559,1.562 -2.559,3.084c0,1.525 1.038,3.281 2.559,3.281Z" style="fill:#fff;fill-rule:nonzero;"/><path d="M378.656,371.078c-1.522,0 -2.675,0.731 -2.675,2.253c0,1.525 1.153,2.766 2.675,2.766c1.522,-0 2.263,-1.241 2.263,-2.766c-0,-1.522 -0.741,-2.253 -2.263,-2.253Z" style="fill:#fff;fill-rule:nonzero;"/><path d="M328.503,417.263c-1.522,-0 -3.209,1.346 -3.209,2.868c-0,1.522 1.687,2.628 3.209,2.628c1.522,0 2.319,-1.106 2.319,-2.628c-0,-1.522 -0.797,-2.868 -2.319,-2.868Z" style="fill:#fff;fill-rule:nonzero;"/><path d="M122.55,152.209c1.522,0 2.809,-1.031 2.809,-2.556c0,-1.522 -1.287,-2.315 -2.809,-2.315c-1.522,-0 -2.441,0.793 -2.441,2.315c0,1.525 0.919,2.556 2.441,2.556Z" style="fill:#fff;fill-rule:nonzero;"/><path d="M442.225,411.947c-1.525,-0 -3.222,0.803 -3.222,2.325c0,1.522 1.697,2.344 3.222,2.344c1.522,-0 2.494,-0.822 2.494,-2.344c-0,-1.522 -0.972,-2.325 -2.494,-2.325Z" style="fill:#fff;fill-rule:nonzero;"/><path d="M390.931,162.838c1.522,-0 2.691,-0.747 2.691,-2.272c-0,-1.522 -1.169,-2.957 -2.691,-2.957c-1.525,0 -2.787,1.435 -2.787,2.957c-0,1.525 1.262,2.272 2.787,2.272Z" style="fill:#fff;fill-rule:nonzero;"/><path d="M359.916,475.384c-0,-1.525 -1.282,-2.606 -2.807,-2.606c-1.521,0 -2.253,1.081 -2.253,2.606c0,1.522 0.732,2.729 2.253,2.729c1.525,-0 2.807,-1.207 2.807,-2.729Z" style="fill:#fff;fill-rule:nonzero;"/><path d="M8.422,89.375c1.525,0 2.262,-1.003 2.262,-2.525c0,-1.525 -0.737,-3.144 -2.262,-3.144c-1.522,0 -2.872,1.619 -2.872,3.144c0,1.522 1.35,2.525 2.872,2.525Z" style="fill:#fff;fill-rule:nonzero;"/><path d="M210.119,22.603c1.525,0 3.225,-0.728 3.225,-2.253c-0,-1.522 -1.7,-2.291 -3.225,-2.291c-1.522,0 -2.935,0.769 -2.935,2.291c0,1.525 1.413,2.253 2.935,2.253Z" style="fill:#fff;fill-rule:nonzero;"/><path d="M384.519,1.725c1.303,0 2.387,-0.6 2.672,-1.725l-4.932,0c0.213,1.106 0.966,1.725 2.26,1.725Z" style="fill:#fff;fill-rule:nonzero;"/><path d="M128.687,66.763c1.522,-0 2.554,-1.738 2.554,-3.26c-0,-1.522 -1.032,-3.053 -2.554,-3.053c-1.524,0 -2.559,1.531 -2.559,3.053c0,1.522 1.035,3.26 2.559,3.26Z" style="fill:#fff;fill-rule:nonzero;"/><path d="M143.1,93.581c1.522,0 2.366,-1.187 2.366,-2.709c-0,-1.525 -0.844,-2.944 -2.366,-2.944c-1.522,0 -2.406,1.419 -2.406,2.944c-0,1.522 0.884,2.709 2.406,2.709Z" style="fill:#fff;fill-rule:nonzero;"/><path d="M136.838,123.691c1.521,-0 2.668,-1.647 2.668,-3.169c0,-1.522 -1.147,-2.444 -2.668,-2.444c-1.522,0 -2.65,0.922 -2.65,2.444c-0,1.522 1.128,3.169 2.65,3.169Z" style="fill:#fff;fill-rule:nonzero;"/><path d="M13.372,372.919c-1.522,-0 -2.559,1.553 -2.559,3.075c-0,1.522 1.037,3.281 2.559,3.281c1.525,0 2.428,-1.759 2.428,-3.281c0,-1.522 -0.903,-3.075 -2.428,-3.075Z" style="fill:#fff;fill-rule:nonzero;"/><path d="M43.684,233.513c0,1.521 0.779,2.937 2.3,2.937c1.522,0 3.247,-1.416 3.247,-2.937c0,-1.522 -1.725,-3.197 -3.247,-3.197c-1.521,-0 -2.3,1.675 -2.3,3.197Z" style="fill:#fff;fill-rule:nonzero;"/><path d="M335.697,362.541c-1.522,-0 -2.478,1.556 -2.478,3.081c-0,1.522 0.956,3.294 2.478,3.294c1.522,-0 2.784,-1.772 2.784,-3.294c0,-1.525 -1.262,-3.081 -2.784,-3.081Z" style="fill:#fff;fill-rule:nonzero;"/><path d="M60.863,412.219c-1.525,-0 -2.835,1.74 -2.835,3.265c0,1.522 1.31,2.482 2.835,2.482c1.521,-0 2.706,-0.96 2.706,-2.482c-0,-1.525 -1.185,-3.265 -2.706,-3.265Z" style="fill:#fff;fill-rule:nonzero;"/><path d="M502.719,447.172c-1.522,-0 -2.413,1.187 -2.413,2.709c0,1.525 0.891,2.485 2.413,2.485c1.522,-0 3.1,-0.96 3.1,-2.485c-0,-1.522 -1.578,-2.709 -3.1,-2.709Z" style="fill:#fff;fill-rule:nonzero;"/><path d="M384.769,266.625c1.522,0 3.112,-0.994 3.112,-2.516c0,-1.521 -1.59,-2.6 -3.112,-2.6c-1.522,0 -3.21,1.079 -3.21,2.6c0,1.522 1.688,2.516 3.21,2.516Z" style="fill:#fff;fill-rule:nonzero;"/><path d="M183.141,121.356c1.525,0 2.84,-1.722 2.84,-3.247c0,-1.521 -1.315,-2.397 -2.84,-2.397c-1.522,0 -3.107,0.876 -3.107,2.397c0,1.525 1.585,3.247 3.107,3.247Z" style="fill:#fff;fill-rule:nonzero;"/><path d="M309.344,313.025c-1.522,0 -3.241,1.372 -3.241,2.894c0,1.525 1.719,2.672 3.241,2.672c1.525,-0 3.109,-1.147 3.109,-2.672c0,-1.522 -1.584,-2.894 -3.109,-2.894Z" style="fill:#fff;fill-rule:nonzero;"/><path d="M246.947,140.819c1.525,-0 2.581,-0.972 2.581,-2.497c0,-1.522 -1.056,-2.788 -2.581,-2.788c-1.522,0 -2.422,1.266 -2.422,2.788c-0,1.525 0.9,2.497 2.422,2.497Z" style="fill:#fff;fill-rule:nonzero;"/><path d="M247.75,10.65c1.525,0 3.144,-0.997 3.144,-2.519c-0,-1.522 -1.619,-2.487 -3.144,-2.487c-1.522,-0 -2.547,0.965 -2.547,2.487c0,1.522 1.025,2.519 2.547,2.519Z" style="fill:#fff;fill-rule:nonzero;"/><path d="M470.087,423.559c-1.524,0 -3.237,1.222 -3.237,2.747c0,1.522 1.713,2.95 3.237,2.95c1.522,0 3.201,-1.428 3.201,-2.95c-0,-1.525 -1.679,-2.747 -3.201,-2.747Z" style="fill:#fff;fill-rule:nonzero;"/><path d="M536.194,404.466c-1.522,-0 -2.622,0.706 -2.622,2.228c-0,1.522 1.1,2.281 2.622,2.281c1.522,0 2.537,-0.759 2.537,-2.281c0,-1.522 -1.015,-2.228 -2.537,-2.228Z" style="fill:#fff;fill-rule:nonzero;"/><path d="M515.525,479.922c0,1.522 0.966,2.206 2.491,2.206c1.522,0 3.1,-0.684 3.1,-2.206c-0,-1.525 -1.578,-2.756 -3.1,-2.756c-1.525,-0 -2.491,1.231 -2.491,2.756Z" style="fill:#fff;fill-rule:nonzero;"/><path d="M530.534,52.663c1.525,-0 3.185,-0.829 3.185,-2.35c-0,-1.522 -1.66,-2.597 -3.185,-2.597c-1.522,-0 -2.897,1.075 -2.897,2.597c0,1.521 1.375,2.35 2.897,2.35Z" style="fill:#fff;fill-rule:nonzero;"/><path d="M538.072,451.997c-0,1.525 1.353,2.762 2.878,2.762c1.522,0 2.681,-1.237 2.681,-2.762c0,-1.522 -1.159,-3.053 -2.681,-3.053c-1.525,-0 -2.878,1.531 -2.878,3.053Z" style="fill:#fff;fill-rule:nonzero;"/><path d="M540.059,260.822c0,1.525 1.41,2.528 2.935,2.528c0.228,0 0.456,-0.031 0.684,-0.075l0,-5.409c-0.228,-0.063 -0.456,-0.11 -0.684,-0.11c-1.525,0 -2.935,1.544 -2.935,3.066Z" style="fill:#fff;fill-rule:nonzero;"/><path d="M524.775,334.716c1.522,-0 2.644,-1.678 2.644,-3.2c-0,-1.525 -1.122,-2.278 -2.644,-2.278c-1.525,-0 -2.722,0.753 -2.722,2.278c0,1.522 1.197,3.2 2.722,3.2Z" style="fill:#fff;fill-rule:nonzero;"/><path d="M539.353,196.072c1.522,-0 3.228,-1.019 3.228,-2.547c0,-1.522 -1.706,-2.722 -3.228,-2.722c-1.525,0 -3.203,1.2 -3.203,2.722c-0,1.528 1.678,2.547 3.203,2.547Z" style="fill:#fff;fill-rule:nonzero;"/><path d="M516.006,173.159c1.522,0 2.313,-1.746 2.313,-3.268c-0,-1.522 -0.791,-2.232 -2.313,-2.232c-1.522,0 -2.547,0.71 -2.547,2.232c0,1.522 1.025,3.268 2.547,3.268Z" style="fill:#fff;fill-rule:nonzero;"/><path d="M530.806,363.169c0,1.525 1.585,2.578 3.11,2.578c1.522,-0 3.225,-1.053 3.225,-2.578c-0,-1.522 -1.703,-2.95 -3.225,-2.95c-1.525,-0 -3.11,1.428 -3.11,2.95Z" style="fill:#fff;fill-rule:nonzero;"/><path d="M541.231,2.353c1.525,0 2.447,-0.831 2.447,-2.353l-5.653,0c0,1.522 1.684,2.353 3.206,2.353Z" style="fill:#fff;fill-rule:nonzero;"/><path d="M527.734,143.822c1.522,-0 2.782,-1.434 2.782,-2.956c-0,-1.525 -1.26,-3.097 -2.782,-3.097c-1.521,-0 -3,1.572 -3,3.097c0,1.522 1.479,2.956 3,2.956Z" style="fill:#fff;fill-rule:nonzero;"/><path d="M541.719,226.903c-1.525,0 -2.688,1.244 -2.688,2.769c0,1.522 1.163,3.116 2.688,3.116c0.778,-0 1.469,-0.422 1.959,-1.035l0,-4c-0.49,-0.522 -1.181,-0.85 -1.959,-0.85Z" style="fill:#fff;fill-rule:nonzero;"/><path d="M528.397,105.034c1.522,0 3.306,-0.928 3.306,-2.45c0,-1.525 -1.784,-3.284 -3.306,-3.284c-1.522,0 -3.038,1.759 -3.038,3.284c0,1.522 1.516,2.45 3.038,2.45Z" style="fill:#fff;fill-rule:nonzero;"/><path d="M508.775,247.294c1.522,-0 2.747,-0.819 2.747,-2.344c-0,-1.522 -1.225,-3.059 -2.747,-3.059c-1.525,-0 -2.372,1.537 -2.372,3.059c0,1.525 0.847,2.344 2.372,2.344Z" style="fill:#fff;fill-rule:nonzero;"/><path d="M541.038,487.222c-1.522,-0 -3.179,1.603 -3.179,3.128c0,1.522 1.657,3.144 3.179,3.144c1.125,-0 2.171,-0.894 2.64,-1.969l0,-2.347c-0.469,-1.075 -1.515,-1.956 -2.64,-1.956Z" style="fill:#fff;fill-rule:nonzero;"/><path d="M536.781,300.522c1.522,-0 2.666,-1.556 2.666,-3.081c-0,-1.522 -1.144,-3 -2.666,-3c-1.525,-0 -2.806,1.478 -2.806,3c0,1.525 1.281,3.081 2.806,3.081Z" style="fill:#fff;fill-rule:nonzero;"/><path d="M509.05,508.975c-1.522,0 -3.231,1.241 -3.231,2.763c-0,1.525 1.709,2.628 3.231,2.628c1.525,-0 3.056,-1.103 3.056,-2.628c0,-1.522 -1.531,-2.763 -3.056,-2.763Z" style="fill:#fff;fill-rule:nonzero;"/><path d="M138.075,527.706c-1.525,0 -2.597,1.25 -2.597,2.772c0,0.297 0.05,0.597 0.128,0.888l5.172,-0c0.091,-0.291 0.156,-0.591 0.156,-0.888c0,-1.522 -1.337,-2.772 -2.859,-2.772Z" style="fill:#fff;fill-rule:nonzero;"/><path d="M83.138,530.647c-0.782,-0 -1.632,0.259 -2.272,0.719l4.012,-0c-0.378,-0.46 -0.956,-0.719 -1.74,-0.719Z" style="fill:#fff;fill-rule:nonzero;"/><path d="M479.197,523.097c-1.525,-0 -2.966,1.125 -2.966,2.647c0,1.522 1.441,2.6 2.966,2.6c1.522,-0 3.012,-1.078 3.012,-2.6c0,-1.522 -1.49,-2.647 -3.012,-2.647Z" style="fill:#fff;fill-rule:nonzero;"/><path d="M291.103,528.272c1.525,-0 3.135,-1.119 3.135,-2.641c-0,-1.525 -1.61,-2.459 -3.135,-2.459c-1.522,-0 -2.887,0.934 -2.887,2.459c-0,1.522 1.365,2.641 2.887,2.641Z" style="fill:#fff;fill-rule:nonzero;"/><path d="M384.519,528.2c-1.522,0 -2.35,1.034 -2.35,2.556c-0,0.232 0.056,0.41 0.09,0.61l4.932,-0c0.05,-0.191 0.084,-0.391 0.084,-0.61c-0,-1.522 -1.234,-2.556 -2.756,-2.556Z" style="fill:#fff;fill-rule:nonzero;"/><path d="M541.231,528.309c-1.522,0 -3.206,1.532 -3.206,3.057l5.653,-0c0,-1.525 -0.922,-3.057 -2.447,-3.057Z" style="fill:#fff;fill-rule:nonzero;"/></g></svg>